<svg xmlns="http://www.w3.org/2000/svg" width="200" height="200">
  <!-- Prominent stars with soft glow halos — draw halo first, dot on top -->
  <circle cx="78"  cy="56"  r="10" fill="#38bdf8" opacity="0.10"/>
  <circle cx="78"  cy="56"  r="3.5" fill="#38bdf8" opacity="0.85"/>

  <circle cx="45"  cy="8"   r="8"  fill="white"   opacity="0.09"/>
  <circle cx="45"  cy="8"   r="3.0" fill="white"   opacity="0.88"/>

  <circle cx="5"   cy="5"   r="7"  fill="white"   opacity="0.08"/>
  <circle cx="5"   cy="5"   r="2.8" fill="white"   opacity="0.82"/>

  <circle cx="160" cy="32"  r="9"  fill="#38bdf8" opacity="0.10"/>
  <circle cx="160" cy="32"  r="3.0" fill="#38bdf8" opacity="0.80"/>

  <circle cx="7"   cy="123" r="7"  fill="#38bdf8" opacity="0.09"/>
  <circle cx="7"   cy="123" r="2.5" fill="#38bdf8" opacity="0.78"/>

  <!-- Medium stars -->
  <circle cx="12"  cy="34"  r="1.8" fill="white"   opacity="0.72"/>
  <circle cx="23"  cy="89"  r="1.6" fill="white"   opacity="0.76"/>
  <circle cx="112" cy="23"  r="2.0" fill="white"   opacity="0.66"/>
  <circle cx="134" cy="78"  r="1.5" fill="#38bdf8" opacity="0.70"/>
  <circle cx="56"  cy="112" r="1.8" fill="white"   opacity="0.72"/>
  <circle cx="89"  cy="140" r="1.6" fill="white"   opacity="0.66"/>
  <circle cx="143" cy="45"  r="1.4" fill="white"   opacity="0.74"/>
  <circle cx="67"  cy="29"  r="2.0" fill="white"   opacity="0.62"/>
  <circle cx="100" cy="90"  r="1.5" fill="white"   opacity="0.70"/>
  <circle cx="34"  cy="67"  r="1.6" fill="#38bdf8" opacity="0.64"/>
  <circle cx="120" cy="110" r="1.8" fill="white"   opacity="0.66"/>
  <circle cx="185" cy="165" r="1.6" fill="white"   opacity="0.72"/>
  <circle cx="170" cy="145" r="1.5" fill="white"   opacity="0.74"/>
  <circle cx="48"  cy="175" r="1.8" fill="white"   opacity="0.66"/>

  <!-- Faint fill stars -->
  <circle cx="100" cy="180" r="1.0" fill="white"   opacity="0.48"/>
  <circle cx="155" cy="190" r="1.2" fill="#38bdf8" opacity="0.52"/>
  <circle cx="192" cy="88"  r="1.0" fill="white"   opacity="0.56"/>
  <circle cx="3"   cy="155" r="1.2" fill="white"   opacity="0.50"/>
</svg>
